<svg width="48" height="48" viewBox="0 0 48 48" fill="none" xmlns="http://www.w3.org/2000/svg">
<path d="M16.8 6.00005C16.8 5.33731 17.3373 4.80005 18 4.80005H30C30.6626 4.80005 31.2 5.33731 31.2 6.00005V14.4H31.3894C33.9283 14.4 36 16.4469 36 18.9883V31.4117C36 33.9533 33.9283 36.0001 31.3894 36.0001H28.8V42.0001C28.8 42.6627 28.2626 43.2001 27.6 43.2001C26.9374 43.2001 26.4 42.6627 26.4 42.0001V36.0001H21.6V42.0001C21.6 42.6627 21.0627 43.2001 20.4 43.2001C19.7373 43.2001 19.2 42.6627 19.2 42.0001V36.0001H16.6105C14.0716 36.0001 12 33.9533 12 31.4117V18.9883C12 16.4469 14.0716 14.4 16.6105 14.4H16.8V6.00005ZM19.2 14.4H28.8V7.20005H19.2V14.4Z" fill="#212121"/>
</svg>
