<svg width="49" height="49" viewBox="0 0 49 49" fill="none" xmlns="http://www.w3.org/2000/svg">
<path d="M39.8514 12.0911C41.431 14.1231 42.3716 16.6765 42.3716 19.4495C42.3716 24.0161 39.8208 27.9869 36.0662 30.0149C34.768 30.7161 33.206 30.2839 32.1626 29.2405L20.5806 17.6585C19.5372 16.6151 19.105 15.0531 19.8063 13.7548C21.8342 10.0003 25.805 7.44948 30.3716 7.44948C33.1446 7.44948 35.6982 8.39014 37.7302 9.96978L42.3112 5.3888C42.897 4.80302 43.8466 4.80302 44.4324 5.3888C45.0182 5.97458 45.0182 6.92434 44.4324 7.51012L39.8514 12.0911ZM7.43248 44.5101L12.0133 39.9293C14.0453 41.5089 16.5986 42.4495 19.3716 42.4495C23.9382 42.4495 27.909 39.8987 29.9368 36.1441C30.6382 34.8459 30.206 33.2839 29.1626 32.2405L17.5806 20.6584C16.5372 19.615 14.9752 19.1829 13.6769 19.8841C9.92238 21.9121 7.3716 25.8829 7.3716 30.4495C7.3716 33.2227 8.31226 35.7761 9.89192 37.8081L5.31116 42.3889C4.72538 42.9747 4.72538 43.9243 5.31116 44.5101C5.89694 45.0959 6.8467 45.0959 7.43248 44.5101Z" fill="#212121"/>
</svg>