<svg width="56" height="74" viewBox="0 0 368 487" fill="none" xmlns="http://www.w3.org/2000/svg">
<path d="M366.933 385.835V61.1413C366.933 27.4347 340.011 0 306.901 0H60.032C26.9227 0 0 27.4347 0 61.1413V385.835C0 419.541 26.9227 446.976 60.032 446.976H76.7147C76.7147 446.976 76.7147 447.232 76.7147 447.403V478.72C76.7147 482.987 80.1707 486.4 84.4373 486.4H146.645C150.912 486.4 154.368 482.944 154.368 478.72V447.403C154.368 447.403 154.368 447.147 154.368 446.976H209.877C209.877 446.976 209.877 447.232 209.877 447.403V478.72C209.877 482.987 213.333 486.4 217.6 486.4H279.808C284.075 486.4 287.531 482.944 287.531 478.72V447.403C287.531 447.403 287.531 447.147 287.531 446.976H307.115C340.224 446.976 367.147 419.541 367.147 385.835H366.933ZM15.5307 166.101H351.445V282.368H15.5307V166.101ZM351.445 150.613H15.5307V141.184H351.445V150.613ZM15.5307 297.899H351.445V307.328H15.5307V297.899ZM15.5307 61.1413C15.5307 35.968 35.4987 15.5307 60.0747 15.5307H306.901C331.477 15.5307 351.445 36.0107 351.445 61.1413V125.696H15.5307V61.1413ZM15.5307 385.835V322.816H351.445V385.835C351.445 411.008 331.477 431.445 306.901 431.445H60.032C35.456 431.445 15.488 410.965 15.488 385.835H15.5307ZM138.923 447.36V470.997H92.1173V447.36C92.1173 447.36 92.2453 447.019 92.4587 446.933H138.581C138.581 446.933 138.923 447.147 138.923 447.36ZM271.957 447.36V470.997H225.152V447.36C225.152 447.36 225.28 447.019 225.493 446.933H271.616C271.616 446.933 271.957 447.147 271.957 447.36ZM95.872 31.7867C74.4533 31.7867 57.088 49.4933 57.088 71.2533C57.088 93.0133 74.496 110.72 95.872 110.72C117.248 110.72 134.699 93.0133 134.699 71.2533C134.699 49.4933 117.291 31.7867 95.872 31.7867ZM95.872 95.2747C82.9867 95.2747 72.4907 84.48 72.4907 71.2107C72.4907 57.9413 82.9867 47.1467 95.872 47.1467C108.757 47.1467 119.253 57.9413 119.253 71.2107C119.253 84.48 108.757 95.2747 95.872 95.2747ZM95.872 182.229C74.4533 182.229 57.088 199.936 57.088 221.696C57.088 243.456 74.496 261.163 95.872 261.163C117.248 261.163 134.699 243.456 134.699 221.696C134.699 199.936 117.291 182.229 95.872 182.229ZM95.872 245.717C82.9867 245.717 72.4907 234.923 72.4907 221.653C72.4907 208.384 82.9867 197.589 95.872 197.589C108.757 197.589 119.253 208.384 119.253 221.653C119.253 234.923 108.757 245.717 95.872 245.717ZM95.872 337.877C74.4533 337.877 57.088 355.584 57.088 377.344C57.088 399.104 74.496 416.811 95.872 416.811C117.248 416.811 134.699 399.104 134.699 377.344C134.699 355.584 117.291 337.877 95.872 337.877ZM95.872 401.365C82.9867 401.365 72.4907 390.571 72.4907 377.301C72.4907 364.032 82.9867 353.237 95.872 353.237C108.757 353.237 119.253 364.032 119.253 377.301C119.253 390.571 108.757 401.365 95.872 401.365ZM229.291 53.3333C219.435 53.3333 211.456 61.44 211.456 71.4667C211.456 81.4933 219.477 89.6 229.291 89.6C239.104 89.6 247.168 81.4933 247.168 71.4667C247.168 61.44 239.147 53.3333 229.291 53.3333ZM229.291 79.232C225.152 79.232 221.781 75.7333 221.781 71.4667C221.781 67.2 225.152 63.7013 229.291 63.7013C233.429 63.7013 236.8 67.2 236.8 71.4667C236.8 75.7333 233.429 79.232 229.291 79.232ZM270.208 53.3333C260.352 53.3333 252.373 61.44 252.373 71.4667C252.373 81.4933 260.395 89.6 270.208 89.6C280.021 89.6 288.085 81.4933 288.085 71.4667C288.085 61.44 280.064 53.3333 270.208 53.3333ZM270.208 79.232C266.069 79.232 262.699 75.7333 262.699 71.4667C262.699 67.2 266.069 63.7013 270.208 63.7013C274.347 63.7013 277.717 67.2 277.717 71.4667C277.717 75.7333 274.347 79.232 270.208 79.232ZM311.125 53.3333C301.269 53.3333 293.248 61.44 293.248 71.4667C293.248 81.4933 301.269 89.6 311.125 89.6C320.981 89.6 329.003 81.4933 329.003 71.4667C329.003 61.44 320.981 53.3333 311.125 53.3333ZM311.125 79.232C306.987 79.232 303.616 75.7333 303.616 71.4667C303.616 67.2 306.987 63.7013 311.125 63.7013C315.264 63.7013 318.635 67.2 318.635 71.4667C318.635 75.7333 315.264 79.232 311.125 79.232ZM229.248 204.8C219.392 204.8 211.413 212.907 211.413 222.933C211.413 232.96 219.435 241.067 229.248 241.067C239.061 241.067 247.125 232.96 247.125 222.933C247.125 212.907 239.104 204.8 229.248 204.8ZM229.248 230.699C225.109 230.699 221.739 227.2 221.739 222.933C221.739 218.667 225.109 215.168 229.248 215.168C233.387 215.168 236.757 218.667 236.757 222.933C236.757 227.2 233.387 230.699 229.248 230.699ZM270.165 204.8C260.309 204.8 252.331 212.907 252.331 222.933C252.331 232.96 260.352 241.067 270.165 241.067C279.979 241.067 288.043 232.96 288.043 222.933C288.043 212.907 280.021 204.8 270.165 204.8ZM270.165 230.699C266.027 230.699 262.656 227.2 262.656 222.933C262.656 218.667 266.027 215.168 270.165 215.168C274.304 215.168 277.675 218.667 277.675 222.933C277.675 227.2 274.304 230.699 270.165 230.699ZM311.083 204.8C301.227 204.8 293.205 212.907 293.205 222.933C293.205 232.96 301.227 241.067 311.083 241.067C320.939 241.067 328.96 232.96 328.96 222.933C328.96 212.907 320.939 204.8 311.083 204.8ZM311.083 230.699C306.944 230.699 303.573 227.2 303.573 222.933C303.573 218.667 306.944 215.168 311.083 215.168C315.221 215.168 318.592 218.667 318.592 222.933C318.592 227.2 315.221 230.699 311.083 230.699ZM229.205 361.515C219.349 361.515 211.371 369.621 211.371 379.648C211.371 389.675 219.392 397.781 229.205 397.781C239.019 397.781 247.083 389.675 247.083 379.648C247.083 369.621 239.061 361.515 229.205 361.515ZM229.205 387.413C225.067 387.413 221.696 383.915 221.696 379.648C221.696 375.381 225.067 371.883 229.205 371.883C233.344 371.883 236.715 375.381 236.715 379.648C236.715 383.915 233.344 387.413 229.205 387.413ZM270.123 361.515C260.267 361.515 252.288 369.621 252.288 379.648C252.288 389.675 260.309 397.781 270.123 397.781C279.936 397.781 288 389.675 288 379.648C288 369.621 279.979 361.515 270.123 361.515ZM270.123 387.413C265.984 387.413 262.613 383.915 262.613 379.648C262.613 375.381 265.984 371.883 270.123 371.883C274.261 371.883 277.632 375.381 277.632 379.648C277.632 383.915 274.261 387.413 270.123 387.413ZM328.917 379.648C328.917 369.664 320.896 361.515 311.04 361.515C301.184 361.515 293.163 369.621 293.163 379.648C293.163 389.675 301.184 397.781 311.04 397.781C320.896 397.781 328.917 389.675 328.917 379.648ZM303.531 379.648C303.531 375.339 306.901 371.883 311.04 371.883C315.179 371.883 318.549 375.381 318.549 379.648C318.549 383.915 315.179 387.413 311.04 387.413C306.901 387.413 303.531 383.915 303.531 379.648Z" fill="black"/>
</svg>
