<svg width="70" height="70" viewBox="0 0 49 49" fill="none" xmlns="http://www.w3.org/2000/svg">
<path d="M6.09409 11.1681C6.09409 8.09109 8.58849 5.59668 11.6655 5.59668H38.2369C41.3139 5.59668 43.8084 8.09109 43.8084 11.1681V25.3101C43.0171 24.7156 42.1549 24.2104 41.2369 23.8094V11.1681C41.2369 9.51125 39.8938 8.16811 38.2369 8.16811H11.6655C10.0087 8.16811 8.66551 9.51125 8.66551 11.1681V37.7395C8.66551 39.3964 10.0087 40.7395 11.6655 40.7395H24.3068C24.7078 41.6575 25.213 42.5197 25.8075 43.311H11.6655C8.58849 43.311 6.09409 40.8165 6.09409 37.7395V11.1681Z" fill="#212121"/>
<path d="M11.2369 21.8707C11.2369 19.5034 13.1559 17.5845 15.5231 17.5845C17.8903 17.5845 19.8094 19.5034 19.8094 21.8707C19.8094 24.2379 17.8903 26.1569 15.5231 26.1569C13.1559 26.1569 11.2369 24.2379 11.2369 21.8707ZM15.5231 20.1559C14.5761 20.1559 13.8084 20.9237 13.8084 21.8707C13.8084 22.8176 14.5761 23.5855 15.5231 23.5855C16.4702 23.5855 17.2379 22.8176 17.2379 21.8707C17.2379 20.9237 16.4702 20.1559 15.5231 20.1559Z" fill="#212121"/>
<path d="M15.5231 29.5911C13.1559 29.5911 11.2369 31.51 11.2369 33.8771C11.2369 36.2444 13.1559 38.1634 15.5231 38.1634C17.8903 38.1634 19.8094 36.2444 19.8094 33.8771C19.8094 31.51 17.8903 29.5911 15.5231 29.5911ZM13.8084 33.8771C13.8084 32.9302 14.5761 32.1625 15.5231 32.1625C16.4702 32.1625 17.2379 32.9302 17.2379 33.8771C17.2379 34.8243 16.4702 35.5919 15.5231 35.5919C14.5761 35.5919 13.8084 34.8243 13.8084 33.8771Z" fill="#212121"/>
<path d="M21.5227 20.5963C21.5227 19.8862 22.0983 19.3105 22.8084 19.3105L37.3798 19.3107C38.0899 19.3107 38.6655 19.8862 38.6655 20.5964C38.6655 21.3065 38.0899 21.8821 37.3798 21.8821L22.8084 21.882C22.0983 21.882 21.5227 21.3063 21.5227 20.5963Z" fill="#212121"/>
<path d="M12.5227 10.8198C11.8126 10.8198 11.2369 11.3954 11.2369 12.1055C11.2369 12.8156 11.8126 13.3913 12.5227 13.3913H37.3798C38.0899 13.3913 38.6655 12.8156 38.6655 12.1055C38.6655 11.3954 38.0899 10.8198 37.3798 10.8198H12.5227Z" fill="#212121"/>
<path d="M47.2369 35.5967C47.2369 41.7508 42.2482 46.7396 36.0941 46.7396C29.94 46.7396 24.9512 41.7508 24.9512 35.5967C24.9512 29.4426 29.94 24.4539 36.0941 24.4539C42.2482 24.4539 47.2369 29.4426 47.2369 35.5967ZM36.9512 28.7396C36.9512 28.2663 36.5674 27.8824 36.0941 27.8824C35.6208 27.8824 35.2369 28.2663 35.2369 28.7396V34.7396H29.2369C28.7636 34.7396 28.3798 35.1234 28.3798 35.5967C28.3798 36.07 28.7636 36.4539 29.2369 36.4539H35.2369V42.4539C35.2369 42.9272 35.6208 43.311 36.0941 43.311C36.5674 43.311 36.9512 42.9272 36.9512 42.4539V36.4539H42.9512C43.4245 36.4539 43.8084 36.07 43.8084 35.5967C43.8084 35.1234 43.4245 34.7396 42.9512 34.7396H36.9512V28.7396Z" fill="#212121"/>
</svg>
